/* XPM */
static char *xpm_[] = {
/* columns rows colors chars-per-pixel */
"8 20 2 1 ",
"  c #5584AC",
". c None",
/* pixels */
".      .",
".      .",
".      .",
"..    ..",
"..    ..",
"..    ..",
"..    ..",
"..    ..",
"..    ..",
"..    ..",
"..    ..",
"..    ..",
"..    ..",
"..    ..",
"..    ..",
"..    ..",
"..    ..",
".      .",
".      .",
".      ."
};
