/* XPM */
static char *xpm_[] = {
/* columns rows colors chars-per-pixel */
"14 14 2 1 ",
"  c #5584AC",
". c None",
/* pixels */
"..............",
"..............",
"..............",
"..............",
"..............",
"..............",
".             ",
".             ",
".             ",
"..............",
"..............",
"..............",
"..............",
".............."
};
