/* XPM */
static char *xpm_[] = {
/* columns rows colors chars-per-pixel */
"14 19 2 1 ",
"  c #919191",
". c None",
/* pixels */
"...           ",
"...           ",
"...           ",
"   ...........",
"   ...........",
"   ...........",
"..............",
"...        ...",
"...        ...",
"...        ...",
"..........    ",
"..........    ",
"..........    ",
"..........    ",
"..........    ",
"..........   .",
"           ...",
"           ...",
"           ..."
};
