/* XPM */
static char *xpm_[] = {
/* columns rows colors chars-per-pixel */
"64 64 41 1 ",
"  c gray6",
". c gray12",
"X c #3D0001",
"o c #271B0F",
"O c #2E2B00",
"+ c #372F00",
"@ c #302F2F",
"# c #3E3C3C",
"$ c #520102",
"% c #680001",
"& c #533F34",
"* c #4B4001",
"= c #4F4D4D",
"- c #6A5748",
"; c #8C0001",
": c #840508",
"> c #860F14",
", c #890E12",
"< c #88141B",
"1 c #93181F",
"2 c #8B1B24",
"3 c #9B1C23",
"4 c #9C1D23",
"5 c #9A2834",
"6 c #932F3E",
"7 c #9D2E3B",
"8 c #9E303D",
"9 c #9F303D",
"0 c #A72933",
"q c #A13442",
"w c #A63C4C",
"e c #B54354",
"r c #866F5F",
"t c #C24551",
"y c #C84B5E",
"u c #CF5265",
"i c #D95A6D",
"p c #E66A7D",
"a c #A3877B",
"s c #F68394",
"d c None",
/* pixels */
"dddddddddddddddddddddddddddddddddddddddddddddddddddddddddddddddd",
"dddddddddddddddddddddddddddddddddddddddddddddddddddddddddddddddd",
"dddddddddddddddddddddddddddddddddddddddddddddddddddddddddddddddd",
"dddddddddddddddddddddddddddddddddddddddddddddddddddddddddddddddd",
"dddddddddddddddddddddddddddddddddddddddddddddddddddddddddddddddd",
"dddddddddddddddddddddddddddddddddddddddddddddddddddddddddddddddd",
"dddddddddddddddddddddddddddddddddddddddddddddddddddddddddddddddd",
"dddddddddddddddddddddddddddddddddddddddddddddddddddddddddddddddd",
"dddddddddddddddddddddddddddddddddddddddddddddddddddddddddddddddd",
"dddddddddddddddddddddddddddddddddddddddddddddddddddddddddddddddd",
"dddddddddddddddddddddddddddddddddddddddddddddddddddddddddddddddd",
"dddddddddddddddddddddddddddddddddddddddddddddddddddddddddddddddd",
"dddddddddddddddddddddddddddddddddddddddddddddddddddddddddddddddd",
"dddddddddddddddddddddddddddddddddddddddddddddddddddddddddddddddd",
"dddddddddddddddddddddddddddddddddddddddddddddddddddddddddddddddd",
"dddddddddddddddddddddddddddddddddddddddddddddddddddddddddddddddd",
"dddddddddddddddddddddddddddddddddddddddddddddddddddddddddddddddd",
"dddddddddddddddddddddddddddddddddddddddddddddddddddddddddddddddd",
"dddddddddddddddddddddddddddddddddddddddddddddddddddddddddddddddd",
"dddddddddddddddddddddddddddddddddddddddddddddddddddddddddddddddd",
"dddddddddddddddddddddddddddddddddddddddddddddddddddddddddddddddd",
"dddddddddddddddddddddddddddddddddddddddddddddddddddddddddddddddd",
"dddddddddddddddddddddddddddddddddddddddddddddddddddddddddddddddd",
"dddddddddddddddddddddddddddddddddddddddddddddddddddddddddddddddd",
"dddddddddddddddddddddddddddddddddd$ddddddddddddddddddddddddddddd",
"dddddddddddddddddddddddddddddddddddddddddddddddddddddddddddddddd",
"dddddddddddddddddddddddddddddddddd$ddddddddddddddddddddddddddddd",
"dddddddddddddddddddddddddddddddddd;ddddddddddddddddddddddddddddd",
"ddddddddddddddddddddddddddddddddddXddddddddddddddddddddddddddddd",
"dddddddddddddddddddXdddddddddddddddddddddddddddddddddddddddddddd",
"dddddddddddddddddddddddddddddeddddeddddddddddddddddddddddddddddd",
"ddddddddddddddddddd;dddddddddyeddeyddddddddddddddddddddddddddddd",
"dddddddddddddddddddXdddd;ddddieddeidddXddddddddddddddddddddddddd",
"ddddddddddddddddddddddddXddeyiewweiyeddddddddddddddddddddddddddd",
"dddddddddddddddddddddddd%deyypueeupyye$dddXddddddddddddddddddddd",
"dddddddddddddddddddXdddd$d$yipuuuupiye%$dddddddddddddddddddddddd",
"ddddddddddddddddddd$XddX$%;eippppppieye;%d$ddddddddddddddddddddd",
"ddddddddddddddddddd$XdX$wX$wuipsspiuwyew$d$ddddddddddddddddddddd",
"ddddddddddddddddddd%Xww%ee%$euippiueuyee$ww$dddddddddddddddddddd",
"dddddddddddddddddwww;weXewXuiuuuuuu$uyweeewX;wwddddddddddddddddd",
"ddddddddddddddddweX$$ewXw6wypspppp$%Xw6wwwe%$eewdddddddddddddddd",
"ddddddddddddddddwwe%XX6we6wyXXXyX%;Xyw6eww6iuewwdddddddddddddddd",
"ddddddddddddddd66weX$6w6we66wey==$Xw66ew66iuXew66ddddddddddddddd",
"ddddddddddddddd66wweXX6u66we6y.@@.%6ew66Xu$eXww66ddddddddddddddd",
"dddddddddddddd6w$66wwXXew666wey==yXw666X%eeww66$w6dddddddddddddd",
"dddddddddddddd6&X;$66www6w8:6w.@@.w6:XX$www66$;X&6dddddddddddddd",
"dddddddddddddd&XrXX$6666wX$;3wy==yw30$%;6666$XXrX&dddddddddddddd",
"ddddddddddddd&X$r$X$6weeeu$$Xtwwwwt4X$XeeXw6$X$r$X&ddddddddddddd",
"ddddddddddddd&X%a$X$e6wwqXX%XXXX%XX1,$;qww6e$X$a%X&ddddddddddddd",
"ddddddddddddd&$raX$$e6662><X$;%X%875X$X26$6e$$Xar$&ddddddddddddd",
"ddddddddddddd&-r$%;666XeuewX66$X$6XX6XXuXX666;%$r-&ddddddddddddd",
"dddddddddddd&-rXXX$6wX$666wewX$;$X6wewX6X;%X6$XXXr-&dddddddddddd",
"dddddddddddd&-ra==X&6X$X6wwwwwXXXwwwwww66X$%&X%rar-&dddddddddddd",
"ddddddddddddd&-=##=$OX%X%X$6weeXXeewXX$++X+X$Xrar-&ddddddddddddd",
"dddddddddddddd#@  @#-+X;$%XOO666666X$%+***+--rar-&dddddddddddddd",
"ddddddddddddd@#@  @#@***X$+++O6666O;$X*****O-rrr-ddddddddddddddd",
"dddddddddddd@##.@@.##@ee*XX*++O66O++XX**eee-r-r-dddddddddddddddd",
"dddddddddddd@#@@##@@#@uee*$*+++dd+++%**eeuuuwd-ddddddddddddddddd",
"dddddddddddd@#.#@@#.#@uew6X+OddddddOX*6weuuw6ddddddddddddddddddd",
"ddddddddddd..@.@  @.@.@..6*+OddddddOX*6weeew6ddddddddddddddddddd",
"ddddddddddd.@@.@  @.@@@@@.+OOddddddOO++6wew6dddddddddddddddddddd",
"dddddddddddd...#@@#......ew6+OddddO+6weew6dddddddddddddddddddddd",
"ddddddddddddd.@.@@.@.6wwww66ooddddoo66wwww6ddddddddddddddddddddd",
"ddddddddddddddd.@@.ddd66666ooddddddoo66666dddddddddddddddddddddd"
};
