/* XPM */
static char *xpm_[] = {
/* columns rows colors chars-per-pixel */
"64 64 58 1 ",
"  c gray6",
". c gray12",
"X c #3D0001",
"o c #271B0F",
"O c #2E2B00",
"+ c #372F00",
"@ c #302F2F",
"# c #3E3C3C",
"$ c #520102",
"% c #680001",
"& c #533F34",
"* c #76202D",
"= c #4B4001",
"- c #4F4D4D",
"; c #6A5748",
": c #840506",
"> c #8C0001",
", c #840508",
"< c #86070A",
"1 c #85080A",
"2 c #86090C",
"3 c #860F14",
"4 c #880D11",
"5 c #890E12",
"6 c #8C0D10",
"7 c #8F0F13",
"8 c #8E1217",
"9 c #88141B",
"0 c #901015",
"q c #901419",
"w c #93181F",
"e c #98191F",
"r c #8B1B24",
"t c #901921",
"y c #9B1C23",
"u c #9C1D23",
"i c #9C1D25",
"p c #9A2834",
"a c #932F3E",
"s c #9D2E3B",
"d c #9E303D",
"f c #9F303D",
"g c #A72933",
"h c #B0323E",
"j c #A13442",
"k c #A63C4C",
"l c #B34151",
"z c #B54354",
"x c #866F5F",
"c c #C24551",
"v c #C84B5E",
"b c #CF5265",
"n c #D95A6D",
"m c #E66A7D",
"M c #A3877B",
"N c #B4998D",
"B c #F68394",
"V c None",
/* pixels */
"VVVVVVVVVVVVVVVVVVVVVVVVVVVVVVVVVVVVVVVVVVVVVVVVVVVVVVVVVVVVVVVV",
"VVVVVVVVVVVVVVVVVVVVVVVVVVVVVVVVVVVVVVVVVVVVVVVVVVVVVVVVVVVVVVVV",
"VVVVVVVVVVVVVVVVVVVVVVVVVVVVVVVVVVVVVVVVVVVVVVVVVVVVVVVVVVVVVVVV",
"VVVVVVVVVVVVVVVVVVVVVVVVVVVVVVVVVVVVVVVVVVVVVVVVVVVVVVVVVVVVVVVV",
"VVVVVVVVVVVVVVVVVVVVVVVVVVVVVVVVVVVVVVVVVVVVVVVVVVVVVVVVVVVVVVVV",
"VVVVVVVVVVVVVVVVVVVVVVVVVVVVVVVVVVVVVVVVVVVVVVVVVVVVVVVVVVVVVVVV",
"VVVVVVVVVVVVVVVVVVVVVVVVVVVVVVVVVVVVVVVVVVVVVVVVVVVVVVVVVVVVVVVV",
"VVVVVVVVVVVVVVVVVVVVVVVVVVVVVVVVVVVVVVVVVVVVVVVVVVVVVVVVVVVVVVVV",
"VVVVVVVVVVVVVVVVVVVVVVVVVVVVVVVVVVVVVVVVVVVVVVVVVVVVVVVVVVVVVVVV",
"VVVVVVVVVVVVVVVVVVVVVVVVVVVVVVVVVVVVVVVVVVVVVVVVVVVVVVVVVVVVVVVV",
"VVVVVVVVVVVVVVVVVVVVVVVVVVVVVVVVVVVVVVVVVVVVVVVVVVVVVVVVVVVVVVVV",
"VVVVVVVVVVVVVVVVVVVVVVVVVVVVVVVVVVVVVVVVVVVVVVVVVVVVVVVVVVVVVVVV",
"VVVVVVVVVVVVVVVVVVVVVVVVVVVVVVVVVVVVVVVVVVVVVVVVVVVVVVVVVVVVVVVV",
"VVVVVVVVVVVVVVVVVVVVVVVVVVVVVVVVVVVVVVVVVVVVVVVVVVVVVVVVVVVVVVVV",
"VVVVVVVVVVVVVVVVVVVVVVVVVVVVVVVVVVVVVVVVVVVVVVVVVVVVVVVVVVVVVVVV",
"VVVVVVVVVVVVVVVVVVVVVVVVVVVVVVVVVVVVVVVVVVVVVVVVVVVVVVVVVVVVVVVV",
"VVVVVVVVVVVVVVVVVVVVVVVVVVVVVVVVVVVVVVVVVVVVVVVVVVVVVVVVVVVVVVVV",
"VVVVVVVVVVVVVVVVVVVVVVVVVVVVVzVVVVzVVVVVVVVVVVVVVVVVVVVVVVVVVVVV",
"VVVVVVVVVVVVVVVVVVVVVVVVVVVVVvzVVzvVVVVVVVVVVVVVVVVVVVVVVVVVVVVV",
"VVVVVVVVVVVVVVVVVVVVVVVVVVVVVnzVVznVVVVVVVVVVVVVVVVVVVVVVVVVVVVV",
"VVVVVVVVVVVVVVVVVVVVVVVVVVVzvnzkkznvzVVVVVVVVVVVVVVVVVVVVVVVVVVV",
"VVVVVVVVVVVVVVVVVVVVVVVVVVzvvmbzzbmvvzVVVVVVVVVVVVVVVVVVVVVVVVVV",
"VVVVVVVVVVVVVVVVVVVVVVVVVVzvnmbbbbmnvzVVVVVVVVVVVVVVVVVVVVVVVVVV",
"VVVVVVVVVVVVVVVVVVVVVVVVVzvznmmmmmmnzvzVVVVVVVVVVVVVVVVVVVVVVVVV",
"VVVVVVVVVVVVVVVVVVVVVVVVVzvkbnmBBmnbkvzVVVVVVVVVVVVVVVVVVVVVVVVV",
"VVVVVVVVVVVVVVVVVVVVVVVkkzvbzbnmmnbzbvzkkVVVVVVVVVVVVVVVVVVVVVVV",
"VVVVVVVVVVVVVVVVVVVVVkkzzkvbnbbbbbbnbvkzzkkVVVVVVVVVVVVVVVVVVVVV",
"VVVVVVVVVVVVVVVVVkkkkkzzzakvmBmmmmBmvkazzzkkkkkVVVVVVVVVVVVVVVVV",
"VVVVVVVVVVVVVVVVkzzzzzakzakvXXXvvXXXvkazkkazzzzkVVVVVVVVVVVVVVVV",
"VVVVVVVVVVVVVVVVkkzbnakakzaakzv--vzkaazkaamnbzkkVVVVVVVVVVVVVVVV",
"VVVVVVVVVVVVVVVaakzzbnabaakzav.@@.vazkaabnnbzzkaaVVVVVVVVVVVVVVV",
"VVVVVVVVVVVVVVVaakkzza$bzkaakzv--vzkaakzbXbzzkkaaVVVVVVVVVVVVVVV",
"VVVVVVVVVVVVVVak&aaka$$Xka4qak.@@.kaq4a$Xzzkkaa&kaVVVVVVVVVVVVVV",
"VVVVVVVVVVVVVVa&;;&aa*%Xakf,:kv--vk:,f$>$kkaa&;;&aVVVVVVVVVVVVVV",
"VVVVVVVVVVVVVVa;xx;;&a*akXzguikkkkiygz$%*aa&;;xx;aVVVVVVVVVVVVVV",
"VVVVVVVVVVVVVVV;xxX;&kzzz$Xnuch08hcunX*Xzzk&Xxxx;VVVVVVVVVVVVVVV",
"VVVVVVVVVVVVVV;xMM$X&kzX%>X$$Xe00$%>X**bbzk&%XMMx;VVVVVVVVVVVVVV",
"VVVVVVVVVVVVVV;xMM%X&kkzzX%X06X$%$X$*lzzzkkX$$MMx;VVVVVVVVVVVVVV",
"VVVVVVVVVVVVVV;MNMx$Xakkjt2XXt,>XX$*42tjkka&$XMNM;VVVVVVVVVVVVVV",
"VVVVVVVVVVVVVV--MMx;&aaar39Xpsf11fXpr93raaa&XxMMMxVVVVVVVVVVVVVV",
"VVVVVVVVVVVVV-##-x;&aaazbzkaaaaaaXaaakzbzaaa&;xxMxVVVVVVVVVVVVVV",
"VVVVVVVVVVVV#@  @#&akakzzkaX%$$X$$%$Xakzzkaka&;xxxVVVVVVVVVVVVVV",
"VVVVVVVVVVV@#@  @#@azaa&&;X;xX%$>$>x;X;&&aazaV&;xxxVVVVVVVVVVVVV",
"VVVVVVVVVV@##.@@.##@za&&;;;xxz*X%X*xx;;;&&azaV&;x;;VVVVVVVVVVVVV",
"VVVVVVVVVV@#@@##@@#@zaakkkkkakk***XakkkkkaazaVV&;xMxVVVVVVVVVVVV",
"VVVVVVVVVV@#.#@@#.#@kaaaaakzkaa**aakzkaaaaakaVVxMxNMMVVVVVVVVVVV",
"VVVVVVVVV..@.@  @.@.@..+++Oakkkk*kkkaO+++++OVVVx;xMxMVVVVVVVVVVV",
"VVVVVVVVV.@@.@  @.@@@@@X=++OOaaaaaaOO+XX==+OVVVVV;x;xVVVVVVVVVVV",
"VVVVVVVVVV...#@@#......=$XX++OaaaaO++X$$X==OVVVVV;x;VVVVVVVVVVVV",
"VVVVVVVVVVV.@.@@.@.Vzzzz$%==++OaaO++=X%$zzzzVVVVVVVVVVVVVVVVVVVV",
"VVVVVVVVVVVVV.@@.VVkbbbzzX==+++OO+++X=XzzbbbkVVVVVVVVVVVVVVVVVVV",
"VVVVVVVVVVVVVVVVVVVkzzzzzkX=+OVVVVO+==kzzzzzkVVVVVVVVVVVVVVVVVVV",
"VVVVVVVVVVVVVVVVVVVakbbzka=+OVVVVVVO+=akzbbkaVVVVVVVVVVVVVVVVVVV",
"VVVVVVVVVVVVVVVVVVVakzzzka=+OVVVVVVO+=akzzzkaVVVVVVVVVVVVVVVVVVV",
"VVVVVVVVVVVVVVVVVVVVakzka++OVVVVVVVVO++akzkaVVVVVVVVVVVVVVVVVVVV",
"VVVVVVVVVVVVVVVVVVVVakbzkaa+OVVVVVVO+aakzbkaVVVVVVVVVVVVVVVVVVVV",
"VVVVVVVVVVVVVVVVVVVVVakzzkka+OVVVVO+akkzzkaVVVVVVVVVVVVVVVVVVVVV",
"VVVVVVVVVVVVVVVVVVVVVVakzzka+OVVVVO+akzzkaVVVVVVVVVVVVVVVVVVVVVV",
"VVVVVVVVVVVVVVVVVVVVVVakzzka+OVVVVO+akzzkaVVVVVVVVVVVVVVVVVVVVVV",
"VVVVVVVVVVVVVVVVVVVVVVVakkkkaVVVVVVakkkkaVVVVVVVVVVVVVVVVVVVVVVV",
"VVVVVVVVVVVVVVVVVVVVVVVaaakkaoVVVVoakkaaaVVVVVVVVVVVVVVVVVVVVVVV",
"VVVVVVVVVVVVVVVVVVVVVVabzkkkaoVVVVoakkkzbaVVVVVVVVVVVVVVVVVVVVVV",
"VVVVVVVVVVVVVVVVVVVVVakkkkaaooVVVVooaakkkkaVVVVVVVVVVVVVVVVVVVVV",
"VVVVVVVVVVVVVVVVVVVVVVaaaaaooVVVVVVooaaaaaVVVVVVVVVVVVVVVVVVVVVV"
};
