/* XPM */
static char *xpm_[] = {
/* columns rows colors chars-per-pixel */
"64 64 28 1 ",
"  c gray6",
". c gray12",
"X c #3D0001",
"o c #302F2F",
"O c #3E3C3C",
"+ c #520102",
"@ c #680001",
"# c #533F34",
"$ c #4F4D4D",
"% c #6A5748",
"& c #8C0001",
"* c #860F14",
"= c #890E12",
"- c #88141B",
"; c #8B1B24",
": c #9A2834",
"> c #932F3E",
", c #A13442",
"< c #A63C4C",
"1 c #B54354",
"2 c #866F5F",
"3 c #C84B5E",
"4 c #CF5265",
"5 c #D95A6D",
"6 c #E66A7D",
"7 c #A3877B",
"8 c #F68394",
"9 c None",
/* pixels */
"9999999999999999999999999999999999999999999999999999999999999999",
"9999999999999999999999999999999999999999999999999999999999999999",
"9999999999999999999999999999999999999999999999999999999999999999",
"9999999999999999999999999999999999999999999999999999999999999999",
"9999999999999999999999999999999999999999999999999999999999999999",
"9999999999999999999999999999999999999999999999999999999999999999",
"9999999999999999999999999999999999999999999999999999999999999999",
"9999999999999999999999999999999999999999999999999999999999999999",
"9999999999999999999999999999999999999999999999999999999999999999",
"9999999999999999999999999999999999999999999999999999999999999999",
"9999999999999999999999999999999999999999999999999999999999999999",
"9999999999999999999999999999999999999999999999999999999999999999",
"9999999999999999999999999999999999999999999999999999999999999999",
"9999999999999999999999999999999999999999999999999999999999999999",
"9999999999999999999999999999999999999999999999999999999999999999",
"9999999999999999999999999999999999999999999999999999999999999999",
"9999999999999999999999999999999999999999999999999999999999999999",
"9999999999999999999999999999999999999999999999999999999999999999",
"9999999999999999999999999999999999999999999999999999999999999999",
"9999999999999999999999999999999999999999999999999999999999999999",
"9999999999999999999999999999999999999999999999999999999999999999",
"9999999999999999999999999999999999999999999999999999999999999999",
"9999999999999999999999999999999999999999999999999999999999999999",
"9999999999999999999999999999999999999999999999999999999999999999",
"9999999999999999999999999999999999999999999999999999999999999999",
"9999999999999999999999999999999999999999999999999999999999999999",
"9999999999999999999999999999999999999999999999999999999999999999",
"9999999999999999999999999999999999999999999999999999999999999999",
"9999999999999999999999999999999999999999999999999999999999999999",
"9999999999999999999999999999999999999999999999999999999999999999",
"9999999999999999999999999999999999999999999999999999999999999999",
"9999999999999999999999999999999999999999999999999999999999999999",
"9999999999999999999999999999999999999999999999999999999999999999",
"9999999999999999999999999999999999999999999999999999999999999999",
"9999999999999999999999999999999999999999999999999999999999999999",
"9999999999999999999999999999999999999999999999999999999999999999",
"9999999999999999999999999999999999999999999999999999999999999999",
"9999999999999999999999999999999999999999999999999999999999999999",
"9999999999999999999999999999999999999999999999999999999999999999",
"9999999999999999999999999999999999999999999999999999999999999999",
"9999999999999999999999999999999999999999999999999999999999999999",
"9999999999999999999999999999999999999999999999999999999999999999",
"9999999999999999999999999999999999999999999999999999999999999999",
"9999999999999999999999999999999999999999999999999999999999999999",
"9999999999999999999999999999999999999999999999999999999999999999",
"9999999999999999999999999999999999999999999999999999999999999999",
"9999999999999999999999999999919999199999999999999999999999999999",
"9999999999999999999999999999931991399999999999999999999999999999",
"99999999999999999999999999+@@51@@15@@+99999999999999999999999999",
"99999999999999999999999X++@+351<<1531@X&@99999999999999999999999",
"9999999999999999999999X+@<X&3641146331<X++9999999999999999999999",
"9999999999999999999@X<<@1@+356444465311+@<<+99999999999999999999",
"99999999999999999<<<&<1+1X+X4568865+<31X11<X&<<99999999999999999",
"9999999999999999<1X++1<X<1@+145665+X4X1<+<1@+11<9999999999999999",
"9999999999999999<<1@XX5@<XX4544444&+4X<<&56541<<9999999999999999",
"999999999999999>+<1X+XX+&><368666X+@X<>4@5X4X1<+>999999999999999",
"999999999999999#$$+1X+><+><3XXX3X@&X3<>1<<>1X+&X#999999999999999",
"99999999999999#$OO$+<><>X1>><13$$+X<>>1<>>X<+XX@X#99999999999999",
"9999999999999#Oo  oO>X>+>><1>3.oo.@>1<>>&X<@+&+@+X#9999999999999",
"9999999999999oOo  oOo>>+<+>><13$$3X<>>@XX>>>@++@@X#X999999999999",
"99999999999XoOO.oo.OOo<<,XX@><.oo.<>=+&X<<>@+@XXX2%#X99999999999",
"999999999+++oO.OooO.Oo>>;*-X+<3$$3<:X+X;>+>%%272+#%#++9999999999",
"999999999X&..o.o  o.o.o..<<<X+<<<<<<<<<X>X+@%222%@+X+&9999999999",
"9999999999X.oo.o  o.ooooo.+<<X+XXX1<XX+XXXX%2%2%X+&X999999999999"
};
