/* XPM */
static char *xpm_[] = {
/* columns rows colors chars-per-pixel */
"64 64 62 1 ",
"  c gray12",
". c #2E2B00",
"X c #372F00",
"o c #302F2F",
"O c #680001",
"+ c #533F34",
"@ c #4B4001",
"# c #554901",
"$ c #4F4D4D",
"% c #6A5748",
"& c #840506",
"* c #840508",
"= c #86090C",
"- c #860F14",
"; c #880D11",
": c #890E12",
"> c #8C0D10",
", c #8F0F13",
"< c #8E1217",
"1 c #88141B",
"2 c #901015",
"3 c #901419",
"4 c #94151A",
"5 c #95151A",
"6 c #92171E",
"7 c #93181F",
"8 c #98191F",
"9 c #8B1B24",
"0 c #901921",
"q c #9B1C23",
"w c #9C1D23",
"e c #9C1D25",
"r c #9A2834",
"t c #932F3E",
"y c #9F303D",
"u c #A72933",
"i c #A12A34",
"p c #A32C37",
"a c #B0323E",
"s c #A13442",
"d c #AC3846",
"f c #A53B4B",
"g c #A63C4C",
"h c #B13D4D",
"j c #B34151",
"k c #B54253",
"l c #B54354",
"z c #866F5F",
"x c #C24551",
"c c #C84958",
"v c #C84B5E",
"b c #CF5265",
"n c #D95A6D",
"m c #E66A7D",
"M c #E0AB27",
"N c #EFCB1F",
"B c #FFF31B",
"V c #A3877B",
"C c #FFF87B",
"Z c #B4998D",
"A c #F68394",
"S c None",
/* pixels */
"SSSSSSSSSSSSSSSSSSSSSSSSSSSSSSSSSSSSSSSSSSSSSSSSSSSSSSSSSSSSSSSS",
"SSSSSSSSSSSSSSSSSSSSSSSSSSSSSSSSSSSSSSSSSSSSSSSSSSSSSSSSSSSSSSSS",
"SSSSSSSSSSSSSSSSSSSSSSSSSSSSSSSSSSSSSSSSSSSSSSSSSSSSSSSSSSSSSSSS",
"SSSSSSSSSSSSSSSSSSSSSSSSSSSSSSSSSSSSSSSSSSSSSSSSSSSSSSSSSSSSSSSS",
"SSSSSSSSSSSSSSSSSSSSSSSSSSSSSSSSSSSSSSSSSSSSSSSSSSSSSSSSSSSSSSSS",
"SSSSSSSSSSSSSSSSSSSSSSSSSSSSSSSSSSSSSSSSSSSSSSSSSSSSSSSSSSSSSSSS",
"SSSSSSSSSSSSSSSSSSSSSSSSSSSSSlSSSSlSSSSSSSSSSSSSSSSSSSSSSSSSSSSS",
"SSSSSSSSSSSSSSSSSSSSSSSSSSSSSvlSSlvSSSSSSSSSSSSSSSSSSSSSSSSSSSSS",
"SSSSSSSSSSSSSSSSSSSSSSSSSSSSSnlSSlnSSSSSSSSSSSSSSSSSSSSSSSSSSSSS",
"SSSSSSSSSSSSSSSSSSSSSSSSSSSlvnlgglnvlSSSSSSSSSSSSSSSSSSSSSSSSSSS",
"SSSSSSSSSSSSSSSSSSSSSSSSSSlvvmbllbmvvlSSSSSSSSSSSSSSSSSSSSSSSSSS",
"SSSSSSSSSSSSSSSSSSSSSSSSSSlvnmbbbbmnvlSSSSSSSSSSSSSSSSSSSSSSSSSS",
"SSSSSSSSSSSSSSSSSSSSSSSSSlvlnmmmmmmnlvlSSSSSSSSSSSSSSSSSSSSSSSSS",
"SSSSSSSSSSSSSSSSSSSSSSSSSlvgbnmAAmnbgvlSSSSSSSSSSSSSSSSSSSSSSSSS",
"SSSSSSSSSSSSSSSSSSSSSSSSSlvblbnmmnblbvlSSSSSSSSSSSSSSSSSSSSSSSSS",
"SSSSSSSSSSSSSSSSSSSSSSSSSgvbnbbbbbbnbvgSSSSSSSSSSSSSSSSSSSSSSSSS",
"SSSSSSSSSSSSSSSSSSSSSSSSStgvmAmmmmAmvgtSSSSSSSSSSSSSSSSSSSSSSSSS",
"SSSSSSSSSSSSSSSSSSSSSStttgvg+OO++OO+gvgtttSSSSSSSSSSSSSSSSSSSSSS",
"SSSSSSSSSSSSSSSSSggggtggltgv%z%vv%z%vgtlggtggggSSSSSSSSSSSSSSSSS",
"SSSSSSSSSSSSSSSSglllllttglttglv$$vlgttlgttlllllgSSSSSSSSSSSSSSSS",
"SSSSSSSSSSSSSSSSgglbnmnlttgltv oo vtlgttlnmnblggSSSSSSSSSSSSSSSS",
"SSSSSSSSSSSSSSSttgllbnnbbgttglv$$vlgttgbbnnbllgttSSSSSSSSSSSSSSS",
"SSSSSSSSSSSSSSSttggllbbblgfktg oo gtkfglbbbllggttSSSSSSSSSSSSSSS",
"SSSSSSSSSSSSSStg+ttgglllgt;3hgv$$vgh3;tglllggtt+gtSSSSSSSSSSSSSS",
"SSSSSSSSSSSSSSt+%%%ttgggtgy*&pggggp&*ygtgggtt%%%+tSSSSSSSSSSSSSS",
"SSSSSSSSSSSSSSt+%zz%%tttggluMM6dd6equlggttt%%zz%+tSSSSSSSSSSSSSS",
"SSSSSSSSSSSSSSS+%zVzzzlllbbMNNM<<axwnbblllzzzVz%+SSSSSSSSSSSSSSS",
"SSSSSSSSSSSSSSS+%zVVVVzbbbMNBBNM,85cbbbbbzVVVVz%+SSSSSSSSSSSSSSS",
"SSSSSSSSSSSSSSS+%zVZZVzzlMNBBBBNM5,2ikklzzVZZVz%+SSSSSSSSSSSSSSS",
"SSSSSSSSSSSSSSS+%%zVVzz%MNBCBBCBNM67;=9s%zzVVz%%+SSSSSSSSSSSSSSS",
"SSSSSSSSSSSSSSSS+%zVzz%MNBBBCCBBBNMr91;%z%zzVz%+SSSSSSSSSSSSSSSS",
"SSSSSSSSSSSSSSSS+%%zz%zMNBBBCCBBBNMlgzzzVz%zz%%+SSSSSSSSSSSSSSSS",
"SSSSSSSSSSSSSSSSS+%%zzVZMNBCBBCBNMttVVVzZVzz%%+SSSSSSSSSSSSSSSSS",
"SSSSSSSSSSSSSSSSSS++zzV  MNBBBBNM oVZzz%%Vzz++SSSSSSSSSSSSSSSSSS",
"SSSSSSSSSSSSSSSSSSSS%zz ooMNBBNMoo zVzVz% z%SSSSSSSSSSSSSSSSSSSS",
"SSSSSSSSSSSSSSSSSSSt+%zz o MNNM o  %z%z%% %+tSSSSSSSSSSSSSSSSSSS",
"SSSSSSSSSSSSSSSSSSStl+%%z  oMMo  zVz%%%%%%+ltSSSSSSSSSSSSSSSSSSS",
"SSSSSSSSSSSSSSSSSSStlt++% o oo o llz+%%%++tltSSSSSSSSSSSSSSSSSSS",
"SSSSSSSSSSSSSSSSSSStlttg+g%VooV%gggtf+++gttltSSSSSSSSSSSSSSSSSSS",
"SSSSSSSSSSSSSSSSSSStgttttt%zooz%tttglftttttgtSSSSSSSSSSSSSSSSSSS",
"SSSSSSSSSSSSSSSSSSSStt.ttg%zVz%ggggggggtt.ttSSSSSSSSSSSSSSSSSSSS",
"SSSSSSSSSSSSSSSSSSSS.XXXXtt%zz%llllggttXXXX.SSSSSSSSSSSSSSSSSSSS",
"SSSSSSSSSSSSSSSSSSSSXX@@@XXt ollllgttXX@@@XXSSSSSSSSSSSSSSSSSSSS",
"SSSSSSSSSSSSSSSSSSSSX@###@@@XtggggtX@@@###@XSSSSSSSSSSSSSSSSSSSS",
"SSSSSSSSSSSSSSSSSSSXX@llll#@@XttttX@@#llll@XXSSSSSSSSSSSSSSSSSSS",
"SSSSSSSSSSSSSSSSSSSX@glbllll@X.SS.X@llllblg@XSSSSSSSSSSSSSSSSSSS",
"SSSSSSSSSSSSSSSSSSSXtgllmbbgt.SSSS.tgbbmllgtXSSSSSSSSSSSSSSSSSSS",
"SSSSSSSSSSSSSSSSSSXtglbllllgt.SSSS.tgllllblgtXSSSSSSSSSSSSSSSSSS",
"SSSSSSSSSSSSSSSSSSXtgllmblgt.SSSSSS.tglbmllgtXSSSSSSSSSSSSSSSSSS",
"SSSSSSSSSSSSSSSSSSXtglllllgt.SSSSSS.tglllllgtXSSSSSSSSSSSSSSSSSS",
"SSSSSSSSSSSSSSSSSSXtglbblgtX.SSSSSS.XtglbblgtXSSSSSSSSSSSSSSSSSS",
"SSSSSSSSSSSSSSSSSSXglllllg@.SSSSSSSS.@glllllgXSSSSSSSSSSSSSSSSSS",
"SSSSSSSSSSSSSSSSSXtglmmlg@.SSSSSSSSSS.@glmmlgtXSSSSSSSSSSSSSSSSS",
"SSSSSSSSSSSSSSSSSXtglbblgX.SSSSSSSSSS.XglbblgtXSSSSSSSSSSSSSSSSS",
"SSSSSSSSSSSSSSSSS.glbllggt.SSSSSSSSSS.tggllblg.SSSSSSSSSSSSSSSSS",
"SSSSSSSSSSSSSSSS.tgllbblgt.SSSSSSSSSS.tglbbllgt.SSSSSSSSSSSSSSSS",
"SSSSSSSSSSSSSSSS.tgllllgt.SSSSSSSSSSSS.tgllllgt.SSSSSSSSSSSSSSSS",
"SSSSSSSSSSSSSSSS.tglblggt.SSSSSSSSSSSS.tgglblgt.SSSSSSSSSSSSSSSS",
"SSSSSSSSSSSSSSSS.tglllgt.SSSSSSSSSSSSSS.tglllgt.SSSSSSSSSSSSSSSS",
"SSSSSSSSSSSSSSSS.tgggggt.SSSSSSSSSSSSSS.tgggggt.SSSSSSSSSSSSSSSS",
"SSSSSSSSSSSSSSSSStttttt.SSSSSSSSSSSSSSSS.ttttttSSSSSSSSSSSSSSSSS",
"SSSSSSSSSSSSSSSStgllllgtSSSSSSSSSSSSSSSStgllllgtSSSSSSSSSSSSSSSS",
"SSSSSSSSSSSSSSStglbmmblgtSSSSSSSSSSSSSStglbmmblgtSSSSSSSSSSSSSSS",
"SSSSSSSSSSSSSSStgbbbblbgtSSSSSSSSSSSSSStgblbbbbgtSSSSSSSSSSSSSSS"
};
