/* XPM */
static char *xpm_[] = {
/* columns rows colors chars-per-pixel */
"120 25 2 1 ",
"  c #D4D4D4",
". c None",
/* pixels */
"...            ..........................................................    ...........    ........   .................",
"...            ..........................................................    ...........    ........   .................",
"...            ..........................................................    ...........    ........   .................",
".........................................................................    ...........    ........   .................",
"   ......................................................................    ...........    ........   .................",
"   ..............   ...     .........          .....          .....          ...........    ........   ..   ....     ...",
"   ..............   ...     .........          .....          .....          ...........    ........   ..   ....     ...",
"...         .....   ...     .........          .....          .....          ...........    ........   ..   ....     ...",
"...         .....      .....   ............    ...........    ..   ......    ...........    ........   ..       .....   ",
"...         .....      .....    .    ......    .    ......    .    ......    ...........    ........   ..       .....   ",
"............   ..      .....    .              .              .    ......    ...........    ........   ..       .....   ",
"............   ..      .....    .             ..             ..    ......    ...........    ........   ..      ......   ",
"............   ..   ........    .          .....          .....    ......    ...........    ........   ..   .........   ",
"............   ..   ........    .    ...........    ...........    ......    ...........    ........   ..   .........   ",
"............   ..   ........    .    ...........    ...........    ......    ...........    ........   ..   .........   ",
"............   ..           .....    ......    .    ......    .    ......    ...........    ........   ..            ...",
"............   ..           ......   ......    ..   ......    .    ......    ............   ........   ..            ...",
"            .....           .........          .....          .              ...............        .....            ...",
"            .....   .................          .....          .              ...............        .....    ...........",
"            .....   .................          .....          .              ...............        .....   ............",
".................   .....................................................................................   ............",
".................   .....................................................................................   ............",
".................   .....................................................................................   ............",
".................   .....................................................................................   ............",
".................   .....................................................................................   ............"
};
