/* XPM */
static char *xpm_[] = {
/* columns rows colors chars-per-pixel */
"64 64 38 1 ",
"  c gray6",
". c gray12",
"X c #3D0001",
"o c #2E2B00",
"O c #372F00",
"+ c #302F2F",
"@ c #3E3C3C",
"# c #520102",
"$ c #680001",
"% c #533F34",
"& c #4B4001",
"* c #4F4D4D",
"= c #6A5748",
"- c #8C0001",
"; c #840508",
": c #860F14",
"> c #890E12",
", c #88141B",
"< c #93181F",
"1 c #8B1B24",
"2 c #9B1C23",
"3 c #9A2834",
"4 c #932F3E",
"5 c #9D2E3B",
"6 c #9E303D",
"7 c #9F303D",
"8 c #A72933",
"9 c #A13442",
"0 c #A63C4C",
"q c #B54354",
"w c #866F5F",
"e c #C84B5E",
"r c #CF5265",
"t c #D95A6D",
"y c #E66A7D",
"u c #A3877B",
"i c #F68394",
"p c None",
/* pixels */
"pppppppppppppppppppppppppppppppppppppppppppppppppppppppppppppppp",
"pppppppppppppppppppppppppppppppppppppppppppppppppppppppppppppppp",
"pppppppppppppppppppppppppppppppppppppppppppppppppppppppppppppppp",
"pppppppppppppppppppppppppppppppppppppppppppppppppppppppppppppppp",
"pppppppppppppppppppppppppppppppppppppppppppppppppppppppppppppppp",
"pppppppppppppppppppppppppppppppppppppppppppppppppppppppppppppppp",
"pppppppppppppppppppppppppppppppppppppppppppppppppppppppppppppppp",
"pppppppppppppppppppppppppppppppppppppppppppppppppppppppppppppppp",
"pppppppppppppppppppppppppppppppppppppppppppppppppppppppppppppppp",
"pppppppppppppppppppppppppppppppppppppppppppppppppppppppppppppppp",
"pppppppppppppppppppppppppppppppppppppppppppppppppppppppppppppppp",
"pppppppppppppppppppppppppppppppppppppppppppppppppppppppppppppppp",
"pppppppppppppppppppppppppppppppppppppppppppppppppppppppppppppppp",
"pppppppppppppppppppppppppppppppppppppppppppppppppppppppppppppppp",
"pppppppppppppppppppppppppppppppppppppppppppppppppppppppppppppppp",
"pppppppppppppppppppppppppppppppppppppppppppppppppppppppppppppppp",
"pppppppppppppppppppppppppppppppppppppppppppppppppppppppppppppppp",
"pppppppppppppppppppppppppppppppppppppppppppppppppppppppppppppppp",
"pppppppppppppppppppppppppppppppppppppppppppppppppppppppppppppppp",
"pppppppppppppppppppppppppppppppppppppppppppppppppppppppppppppppp",
"pppppppppppppppppppppppppppppppppppppppppppppppppppppppppppppppp",
"pppppppppppppppppppppppppppppppppppppppppppppppppppppppppppppppp",
"pppppppppppppppppppppppppppppppppppppppppppppppppppppppppppppppp",
"pppppppppppppppppppppppppppppppppppppppppppppppppppppppppppppppp",
"pppppppppppppppppppppppppppppppppppppppppppppppppppppppppppppppp",
"pppppppppppppppppppppppppppppppppppppppppppppppppppppppppppppppp",
"pppppppppppppppppppppppppppppppppppppppppppppppppppppppppppppppp",
"pppppppppppppppppppppppppppppppppppppppppppppppppppppppppppppppp",
"pppppppppppppppppppppppppppppppppppppppppppppppppppppppppppppppp",
"pppppppppppppppppppppppppppppppppppppppppppppppppppppppppppppppp",
"pppppppppppppppppppppppppppppppppppppppppppppppppppppppppppppppp",
"pppppppppppppppppppppppppppppppppppppppppppppppppppppppppppppppp",
"ppppppppppppppppppppppppppp$pppppppppppppppppppppppppppppppppppp",
"ppppppppppppppppppppppppppppppppppXppppppppppppppppppppppppppppp",
"ppppppppppppppppppppppppppp$pppppppppppppppppppppppppppppppppppp",
"ppppppppppppppppppppppppppp#pppppppppppppppppppppppppppppppppppp",
"ppppppppppppppppppppppppppp#pppp$ppppp$ppppppppppppppppppppppppp",
"pppppppppppppppppppppppppppppppp#ppppppppppppppppppppppppppppppp",
"ppppppppppppppppppppp$pppppppppppppppppppppppppppppppppppppppppp",
"pppppppppppppppppppppppppppppqppppqpppXppppppppppppppppppppppppp",
"pppppppppppppppppppppXpppppppeqppqeppp$ppppppppppppppppppppppppp",
"ppppppppppppppppppppp#ppppppptqppqtppppppp$ppppppppppppppppppppp",
"ppppppppppppppppppppp$ppppp#etq00qteqppppppppppppppppppppppppppp",
"ppppppppppppppppppppppppppX-eyrqqryeeq#ppp$ppppppppppppppppppppp",
"ppppppppppppppppppXppppppp#etyrrrryteq$#pp#ppXpppppppppppppppppp",
"pppppppppppppppppppppppX#$-#tyyyyyyXqeq-$ppppppppppppppppppppppp",
"ppppppppppppppppppppppX#0X#Xrtyiiyt#0eq0#ppppppppppppppppppppppp",
"ppppppppppppppppppp$X00$qq$#qrtyyt#XrXqq#00#pppppppppppppppppppp",
"ppppppppppppppppp000-0q#q0Xrtrrrrr-#rX0qqq0X-00ppppppppppppppppp",
"pppppppppppppppp0qX##q0X040eyiyyyX#$X04000q$#qq0pppppppppppppppp",
"pppppppppppppppp00q$XX40q40eXXXeX$-Xe04q004trq00pppppppppppppppp",
"ppppppppppppppp440qX#4040q440qe**#X044q044XrXq044ppppppppppppppp",
"ppppppppppppppp4400qX#4X440q4e.++.$4q044X##qX0044ppppppppppppppp",
"pppppppppppppp40#4400-#X04440qe**eX0444X$-X0044#04pppppppppppppp",
"pppppppppppppp4%X-#44XX#406;40.++.04;XX#-X044#-X%4pppppppppppppp",
"pppppppppppppp%X**X#X44#0##-20e**e028#$XX444#XXwX%pppppppppppppp",
"ppppppppppppp%X*@@*#-X009XX$XX0000X<>#-X004q#X#w#X%ppppppppppppp",
"ppppppppppppp%@+  +@q4441:,X#-$X$653X#X14#4q#X#u$X%ppppppppppppp",
"pppppppppppp%+@+  +@+X#X4000X#X#X00000044X#$##XXXw=%pppppppppppp",
"pppppppppppp+@@.++.@@+$X$X#00X#XXXq0XX#&qXqX%X$wuw=%pppppppppppp",
"pppppppppppp+@.@++@.@+X-#$X440Xqqq0X#$&qqrrr#Xwuw=%ppppppppppppp",
"ppppppppppp..+.+  +.+.+..#&XX400004-#X40qrr==wuw=%pppppppppppppp",
"ppppppppppp.++.+  +.+++++.XOXXXXXXXXXX40qqq0=www=ppppppppppppppp",
"pppppppppppp...@++@......O#ooppppppo$OO40q0=w=w=pppppppppppppppp"
};
