/* XPM */
static char *xpm_[] = {
/* columns rows colors chars-per-pixel */
"64 64 58 1 ",
"  c gray6",
". c gray12",
"X c #2E2B00",
"o c #372F00",
"O c #302F2F",
"+ c #3E3C3C",
"@ c #680001",
"# c #533F34",
"$ c #4B4001",
"% c #554901",
"& c #4F4D4D",
"* c #6A5748",
"= c #840506",
"- c #840508",
"; c #86090C",
": c #880D11",
"> c #890E12",
", c #8C0D10",
"< c #8F0F13",
"1 c #8E1217",
"2 c #901015",
"3 c #901419",
"4 c #94151A",
"5 c #95151A",
"6 c #92171E",
"7 c #93181F",
"8 c #98191F",
"9 c #8B1B24",
"0 c #901921",
"q c #9B1C23",
"w c #9C1D23",
"e c #9C1D25",
"r c #9A2834",
"t c #932F3E",
"y c #9D2E3B",
"u c #9F303D",
"i c #A72933",
"p c #A12A34",
"a c #A32C37",
"s c #B0323E",
"d c #AC3846",
"f c #A53B4B",
"g c #A63C4C",
"h c #B13D4D",
"j c #B34151",
"k c #B54253",
"l c #B54354",
"z c #866F5F",
"x c #C24551",
"c c #C84958",
"v c #C84B5E",
"b c #CF5265",
"n c #D95A6D",
"m c #E66A7D",
"M c #A3877B",
"N c #B4998D",
"B c #F68394",
"V c None",
/* pixels */
"VVVVVVVVVVVVVVVVVVVVVVVVVVVVVVVVVVVVVVVVVVVVVVVVVVVVVVVVVVVVVVVV",
"VVVVVVVVVVVVVVVVVVVVVVVVVVVVVVVVVVVVVVVVVVVVVVVVVVVVVVVVVVVVVVVV",
"VVVVVVVVVVVVVVVVVVVVVVVVVVVVVVVVVVVVVVVVVVVVVVVVVVVVVVVVVVVVVVVV",
"VVVVVVVVVVVVVVVVVVVVVVVVVVVVVVVVVVVVVVVVVVVVVVVVVVVVVVVVVVVVVVVV",
"VVVVVVVVVVVVVVVVVVVVVVVVVVVVVlVVVVlVVVVVVVVVVVVVVVVVVVVVVVVVVVVV",
"VVVVVVVVVVVVVVVVVVVVVVVVVVVVVvlVVlvVVVVVVVVVVVVVVVVVVVVVVVVVVVVV",
"VVVVVVVVVVVVVVVVVVVVVVVVVVVVVnlVVlnVVVVVVVVVVVVVVVVVVVVVVVVVVVVV",
"VVVVVVVVVVVVVVVVVVVVVVVVVVVlvnlgglnvlVVVVVVVVVVVVVVVVVVVVVVVVVVV",
"VVVVVVVVVVVVVVVVVVVVVVVVVVlvvmbllbmvvlVVVVVVVVVVVVVVVVVVVVVVVVVV",
"VVVVVVVVVVVVVVVVVVVVVVVVVVlvnmbbbbmnvlVVVVVVVVVVVVVVVVVVVVVVVVVV",
"VVVVVVVVVVVVVVVVVVVVVVVVVlvlnmmmmmmnlvlVVVVVVVVVVVVVVVVVVVVVVVVV",
"VVVVVVVVVVVVVVVVVVVVVVVVVlvgbnmBBmnbgvlVVVVVVVVVVVVVVVVVVVVVVVVV",
"VVVVVVVVVVVVVVVVVVVVVVVVVlvblbnmmnblbvlVVVVVVVVVVVVVVVVVVVVVVVVV",
"VVVVVVVVVVVVVVVVVVVVVVVVVgvbnbbbbbbnbvgVVVVVVVVVVVVVVVVVVVVVVVVV",
"VVVVVVVVVVVVVVVVVVVVVVVVVtgvmBmmmmBmvgtVVVVVVVVVVVVVVVVVVVVVVVVV",
"VVVVVVVVVVVVVVVVVVVVVVtttgvg#@@##@@#gvgtttVVVVVVVVVVVVVVVVVVVVVV",
"VVVVVVVVVVVVVVVVVVVVVtggltgv*z*vv*z*vgtlggtVVVVVVVVVVVVVVVVVVVVV",
"VVVVVVVVVVVVVVVVVgggggttglttglv&&vlgttlgttgggggVVVVVVVVVVVVVVVVV",
"VVVVVVVVVVVVVVVVglllllggttgltv.OO.vtlgttgglllllgVVVVVVVVVVVVVVVV",
"VVVVVVVVVVVVVVVVgglbnmnlggttglv&&vlgttgglnmnblggVVVVVVVVVVVVVVVV",
"VVVVVVVVVVVVVVVttgllbnnbbgggtg.OO.gtgggbbnnbllgttVVVVVVVVVVVVVVV",
"VVVVVVVVVVVVVVVttggllbbblgfklgv&&vglkfglbbbllggttVVVVVVVVVVVVVVV",
"VVVVVVVVVVVVVVtg#ttgglllgt:3hlgggglh3:tglllggtt#gtVVVVVVVVVVVVVV",
"VVVVVVVVVVVVVVt#***ttgggtgu-=alllla=-ugtgggtt***#tVVVVVVVVVVVVVV",
"VVVVVVVVVVVVVVt#*zz**tttggli&&6dd6eqikggttt**zz*#tVVVVVVVVVVVVVV",
"VVVVVVVVVVVVVVV#*zMzzzlllbb&++&11sxqnbblllzzzMz*#VVVVVVVVVVVVVVV",
"VVVVVVVVVVVVVVV#*zMMMMzbbb+O  O+<84cbbbbbzMMMMz*#VVVVVVVVVVVVVVV",
"VVVVVVVVVVVVVVV#*zMNNMz*lO+O  O+O4<<pjll*zMNNMz*#VVVVVVVVVVVVVVV",
"VVVVVVVVVVVVVVV#**zMMzzzO++.OO.+#O70:;0*zzzMMz**#VVVVVVVVVVVVVVV",
"VVVVVVVVVVVVVVVV#*zMzz*MO+OO++OO+Oyr9zzzM*zzMz*#VVVVVVVVVVVVVVVV",
"VVVVVVVVVVVVVVVV#**zz*zNO+.+OO+.+OglMMMzNz*zz**#VVVVVVVVVVVVVVVV",
"VVVVVVVVVVVVVVVVV#**zzM..O.O  O.O.OMNzz**Mzz**#VVVVVVVVVVVVVVVVV",
"VVVVVVVVVVVVVVVVVV##*zz.OO.O  O.OO.zNzMz*.z*##VVVVVVVVVVVVVVVVVV",
"VVVVVVVVVVVVVVVVVVVV#*z*...+OO+....*z*z**.*#VVVVVVVVVVVVVVVVVVVV",
"VVVVVVVVVVVVVVVVVVVtg#*#*.O.OO.O.zNz****#*#gtVVVVVVVVVVVVVVVVVVV",
"VVVVVVVVVVVVVVVVVVVtlt###.O.OO.O.*N**#####tltVVVVVVVVVVVVVVVVVVV",
"VVVVVVVVVVVVVVVVVVVtlt##***MOOM*bllzz***##tltVVVVVVVVVVVVVVVVVVV",
"VVVVVVVVVVVVVVVVVVVtlttggg*zOOz*gggtffffgttltVVVVVVVVVVVVVVVVVVV",
"VVVVVVVVVVVVVVVVVVVtgttttt*zMz*ttttglftttttgtVVVVVVVVVVVVVVVVVVV",
"VVVVVVVVVVVVVVVVVVVVttXttgg*zz*gggggfffttXttVVVVVVVVVVVVVVVVVVVV",
"VVVVVVVVVVVVVVVVVVVVXXXXXttg.OlllllggttXXXXXVVVVVVVVVVVVVVVVVVVV",
"VVVVVVVVVVVVVVVVVVVVXoooooottgllllgttXXooooXVVVVVVVVVVVVVVVVVVVV",
"VVVVVVVVVVVVVVVVVVVVoo$$$ooootggggtoooo$$$ooVVVVVVVVVVVVVVVVVVVV",
"VVVVVVVVVVVVVVVVVVVVo$%%%$$$oottttoo$$$%%%$oVVVVVVVVVVVVVVVVVVVV",
"VVVVVVVVVVVVVVVVVVVoo$llll%$$ooVVoo$$%llll$ooVVVVVVVVVVVVVVVVVVV",
"VVVVVVVVVVVVVVVVVVVo$glbllll$oXVVXo$llllblg$oVVVVVVVVVVVVVVVVVVV",
"VVVVVVVVVVVVVVVVVVVotgllmbbgtXVVVVXtgbbmllgtoVVVVVVVVVVVVVVVVVVV",
"VVVVVVVVVVVVVVVVVVotglbllllgtXVVVVXtgllllblgtoVVVVVVVVVVVVVVVVVV",
"VVVVVVVVVVVVVVVVVVotgllmblgtXVVVVVVXtglbmllgtoVVVVVVVVVVVVVVVVVV",
"VVVVVVVVVVVVVVVVVVotglllllgtXVVVVVVXtglllllgtoVVVVVVVVVVVVVVVVVV",
"VVVVVVVVVVVVVVVVVVotglbblgtoXVVVVVVXotglbblgtoVVVVVVVVVVVVVVVVVV",
"VVVVVVVVVVVVVVVVVVoglllllg$XVVVVVVVVX$glllllgoVVVVVVVVVVVVVVVVVV",
"VVVVVVVVVVVVVVVVVotglmmlg$XVVVVVVVVVVX$glmmlgtoVVVVVVVVVVVVVVVVV",
"VVVVVVVVVVVVVVVVVotglbblgoXVVVVVVVVVVXoglbblgtoVVVVVVVVVVVVVVVVV",
"VVVVVVVVVVVVVVVVVXglbllggtXVVVVVVVVVVXtggllblgXVVVVVVVVVVVVVVVVV",
"VVVVVVVVVVVVVVVVXtgllbblgtXVVVVVVVVVVXtglbbllgtXVVVVVVVVVVVVVVVV",
"VVVVVVVVVVVVVVVVXtgllllgtXVVVVVVVVVVVVXtgllllgtXVVVVVVVVVVVVVVVV",
"VVVVVVVVVVVVVVVVXtglblggtXVVVVVVVVVVVVXtgglblgtXVVVVVVVVVVVVVVVV",
"VVVVVVVVVVVVVVVVXtglllgtXVVVVVVVVVVVVVVXtglllgtXVVVVVVVVVVVVVVVV",
"VVVVVVVVVVVVVVVVXtgggggtXVVVVVVVVVVVVVVXtgggggtXVVVVVVVVVVVVVVVV",
"VVVVVVVVVVVVVVVVVttttttXVVVVVVVVVVVVVVVVXttttttVVVVVVVVVVVVVVVVV",
"VVVVVVVVVVVVVVVVtgllllgtVVVVVVVVVVVVVVVVtgllllgtVVVVVVVVVVVVVVVV",
"VVVVVVVVVVVVVVVtglbmmblgtVVVVVVVVVVVVVVtglbmmblgtVVVVVVVVVVVVVVV",
"VVVVVVVVVVVVVVVtgbbbblbgtVVVVVVVVVVVVVVtgblbbbbgtVVVVVVVVVVVVVVV"
};
