/* XPM */
static char *xpm_[] = {
/* columns rows colors chars-per-pixel */
"13 15 2 1 ",
"  c #5584AC",
". c None",
/* pixels */
"   .......   ",
"   .......   ",
"   .......   ",
"   .......   ",
"   .......   ",
"   .......   ",
"   .......   ",
"   .......   ",
"   ..   ..   ",
"   ..   ..   ",
"     ..      ",
"     ..      ",
"   .......   ",
"   .......   ",
"   .......   "
};
